<svg xmlns="http://www.w3.org/2000/svg" viewBox="0 0 56.02 44.92"><defs><style>.cls-1{fill:#f7cac9;}</style></defs><g id="Calque_2" data-name="Calque 2"><g id="Calque_3" data-name="Calque 3"><path class="cls-1" d="M33.41,44.92l-2-.74A35.07,35.07,0,0,0,10.83,44l-1,.29L0,11l.65-.4c.1-.07,10.47-6.35,20.67-.11C27.17-.07,38.49,0,38.63,0h.77l3.13,12.53L48.28,1,48.81,1C51,.7,55.17,3.24,55.88,5.22l.14.41L44.32,28.54l-5.7,4.34a1.1,1.1,0,0,1-1.19.11,1.12,1.12,0,0,1-.62-1L37,24.73a1,1,0,0,1,2,.06l-.16,5.4,3.89-3L53.81,5.57A8.91,8.91,0,0,0,49.55,3L41.9,18.27,37.84,2A18.27,18.27,0,0,0,22.59,12.36l-.51,1-.95-.66C13,7.14,4.74,10.69,2.36,11.92l8.85,29.84a37.25,37.25,0,0,1,19,0L22.43,19a1,1,0,1,1,1.89-.64Z"/></g></g></svg>